{
  "accessors": [
    {
      "bufferView": 2,
      "componentType": 5126,
      "count": 37333,
      "max": [
        1.9897528886795044,
        1.9988595247268677,
        1.9889198541641235
      ],
      "min": [
        -1.9913969039916992,
        -1.9988595247268677,
        -1.9880058765411377
      ],
      "type": "VEC3"
    },
    {
      "bufferView": 2,
      "byteOffset": 447996,
      "componentType": 5126,
      "count": 37333,
      "max": [
        0.9998476505279541,
        1.0,
        0.9999985098838806
      ],
      "min": [
        -0.9999482035636902,
        -1.0,
        -0.9999142289161682
      ],
      "type": "VEC3"
    },
    {
      "bufferView": 1,
      "componentType": 5126,
      "count": 37333,
      "max": [
        1.000000238418579,
        1.000000238418579
      ],
      "min": [
        0.0,
        -1.1920930376163597e-07
      ],
      "type": "VEC2"
    },
    {
      "bufferView": 0,
      "componentType": 5125,
      "count": 181104,
      "type": "SCALAR"
    },
    {
      "bufferView": 2,
      "byteOffset": 895992,
      "componentType": 5126,
      "count": 24344,
      "max": [
        1.9565346240997314,
        1.9364659786224365,
        1.9688197374343872
      ],
      "min": [
        -1.9648420810699463,
        -1.9341402053833008,
        -1.9452649354934692
      ],
      "type": "VEC3"
    },
    {
      "bufferView": 2,
      "byteOffset": 1188120,
      "componentType": 5126,
      "count": 24344,
      "max": [
        0.9998778104782104,
        0.9998116493225098,
        0.9999406933784485
      ],
      "min": [
        -0.9999734163284302,
        -0.999983549118042,
        -0.999923586845398
      ],
      "type": "VEC3"
    },
    {
      "bufferView": 3,
      "componentType": 5126,
      "count": 24344,
      "max": [
        1.0,
        0.9999955892562866,
        1.0,
        1.0
      ],
      "min": [
        -0.9999991655349731,
        -0.9999781847000122,
        -0.999953031539917,
        -1.0
      ],
      "type": "VEC4"
    },
    {
      "bufferView": 1,
      "byteOffset": 298664,
      "componentType": 5126,
      "count": 24344,
      "max": [
        1.000000238418579,
        0.936478853225708
      ],
      "min": [
        0.0,
        0.06140937656164169
      ],
      "type": "VEC2"
    },
    {
      "bufferView": 1,
      "byteOffset": 493416,
      "componentType": 5126,
      "count": 24344,
      "max": [
        1.000000238418579,
        0.936478853225708
      ],
      "min": [
        0.0,
        0.06140937656164169
      ],
      "type": "VEC2"
    },
    {
      "bufferView": 0,
      "byteOffset": 724416,
      "componentType": 5125,
      "count": 109632,
      "type": "SCALAR"
    },
    {
      "bufferView": 2,
      "byteOffset": 1480248,
      "componentType": 5126,
      "count": 1269,
      "max": [
        2.000000476837158,
        2.0,
        2.0000007152557373
      ],
      "min": [
        -2.0000011920928955,
        -2.0,
        -2.0
      ],
      "type": "VEC3"
    },
    {
      "bufferView": 2,
      "byteOffset": 1495476,
      "componentType": 5126,
      "count": 1269,
      "max": [
        1.0,
        1.0,
        1.0
      ],
      "min": [
        -1.0,
        -1.0,
        -1.0
      ],
      "type": "VEC3"
    },
    {
      "bufferView": 1,
      "byteOffset": 688168,
      "componentType": 5126,
      "count": 1269,
      "max": [
        1.0,
        1.0
      ],
      "min": [
        0.0,
        0.0
      ],
      "type": "VEC2"
    },
    {
      "bufferView": 0,
      "byteOffset": 1162944,
      "componentType": 5125,
      "count": 6960,
      "type": "SCALAR"
    },
    {
      "bufferView": 2,
      "byteOffset": 1510704,
      "componentType": 5126,
      "count": 62332,
      "max": [
        2.236741542816162,
        2.216111183166504,
        2.2481625080108643
      ],
      "min": [
        -2.251075506210327,
        -2.214909076690674,
        -2.225830078125
      ],
      "type": "VEC3"
    },
    {
      "bufferView": 2,
      "byteOffset": 2258688,
      "componentType": 5126,
      "count": 62332,
      "max": [
        0.9999238848686218,
        0.9999401569366455,
        0.9998162388801575
      ],
      "min": [
        -0.9998994469642639,
        -0.9999774098396301,
        -0.9999756813049316
      ],
      "type": "VEC3"
    },
    {
      "bufferView": 3,
      "byteOffset": 389504,
      "componentType": 5126,
      "count": 62332,
      "max": [
        1.0,
        0.9998424053192139,
        1.0,
        1.0
      ],
      "min": [
        -1.0,
        -0.9998868703842163,
        -0.9999953508377075,
        -1.0
      ],
      "type": "VEC4"
    },
    {
      "bufferView": 1,
      "byteOffset": 698320,
      "componentType": 5126,
      "count": 62332,
      "max": [
        1.0000001192092896,
        0.936478853225708
      ],
      "min": [
        0.0,
        0.0
      ],
      "type": "VEC2"
    },
    {
      "bufferView": 1,
      "byteOffset": 1196976,
      "componentType": 5126,
      "count": 62332,
      "max": [
        1.0000001192092896,
        0.936478853225708
      ],
      "min": [
        0.0,
        0.0
      ],
      "type": "VEC2"
    },
    {
      "bufferView": 0,
      "byteOffset": 1190784,
      "componentType": 5125,
      "count": 337392,
      "type": "SCALAR"
    },
    {
      "bufferView": 2,
      "byteOffset": 3006672,
      "componentType": 5126,
      "count": 1269,
      "max": [
        2.000000476837158,
        2.0,
        2.0000007152557373
      ],
      "min": [
        -2.0000011920928955,
        -2.0,
        -2.0
      ],
      "type": "VEC3"
    },
    {
      "bufferView": 2,
      "byteOffset": 3021900,
      "componentType": 5126,
      "count": 1269,
      "max": [
        1.0,
        1.0,
        1.0
      ],
      "min": [
        -1.0,
        -1.0,
        -1.0
      ],
      "type": "VEC3"
    },
    {
      "bufferView": 1,
      "byteOffset": 1695632,
      "componentType": 5126,
      "count": 1269,
      "max": [
        1.0,
        1.0
      ],
      "min": [
        0.0,
        0.0
      ],
      "type": "VEC2"
    },
    {
      "bufferView": 0,
      "byteOffset": 2540352,
      "componentType": 5125,
      "count": 6960,
      "type": "SCALAR"
    },
    {
      "bufferView": 4,
      "componentType": 5126,
      "count": 450,
      "max": [
        18.75
      ],
      "min": [
        0.0416666679084301
      ],
      "type": "SCALAR"
    },
    {
      "bufferView": 6,
      "componentType": 5126,
      "count": 450,
      "max": [
        0.0,
        0.9999994039535522,
        -0.0,
        0.999992311000824
      ],
      "min": [
        0.0,
        -0.9999600648880005,
        -0.0,
        0.001081478432752192
      ],
      "type": "VEC4"
    },
    {
      "bufferView": 4,
      "byteOffset": 1800,
      "componentType": 5126,
      "count": 307,
      "max": [
        18.75
      ],
      "min": [
        0.0416666679084301
      ],
      "type": "SCALAR"
    },
    {
      "bufferView": 5,
      "componentType": 5126,
      "count": 307,
      "max": [
        1.5000001192092896,
        1.5,
        1.5000001192092896
      ],
      "min": [
        1.4999998807907104,
        1.5,
        1.4999998807907104
      ],
      "type": "VEC3"
    },
    {
      "bufferView": 4,
      "byteOffset": 3028,
      "componentType": 5126,
      "count": 450,
      "max": [
        18.75
      ],
      "min": [
        0.0416666679084301
      ],
      "type": "SCALAR"
    },
    {
      "bufferView": 6,
      "byteOffset": 7200,
      "componentType": 5126,
      "count": 450,
      "max": [
        0.0,
        0.9999953508377075,
        -0.0,
        0.9999813437461853
      ],
      "min": [
        0.0,
        -0.9999923706054688,
        -0.0,
        0.003054451197385788
      ],
      "type": "VEC4"
    },
    {
      "bufferView": 4,
      "byteOffset": 4828,
      "componentType": 5126,
      "count": 450,
      "max": [
        18.75
      ],
      "min": [
        0.0416666679084301
      ],
      "type": "SCALAR"
    },
    {
      "bufferView": 6,
      "byteOffset": 14400,
      "componentType": 5126,
      "count": 450,
      "max": [
        0.7070875763893127,
        0.7070915102958679,
        0.19460654258728027,
        0.9999957084655762
      ],
      "min": [
        -0.7070798873901367,
        -0.7070776224136353,
        -0.707098126411438,
        0.0069440873339772224
      ],
      "type": "VEC4"
    },
    {
      "bufferView": 4,
      "byteOffset": 6628,
      "componentType": 5126,
      "count": 332,
      "max": [
        18.75
      ],
      "min": [
        0.0416666679084301
      ],
      "type": "SCALAR"
    },
    {
      "bufferView": 5,
      "byteOffset": 3684,
      "componentType": 5126,
      "count": 332,
      "max": [
        1.5500000715255737,
        1.5500000715255737,
        1.5500000715255737
      ],
      "min": [
        1.5499998331069946,
        1.5499998331069946,
        1.5499998331069946
      ],
      "type": "VEC3"
    }
  ],
  "animations": [
    {
      "channels": [
        {
          "sampler": 0,
          "target": {
            "node": 3,
            "path": "rotation"
          }
        },
        {
          "sampler": 1,
          "target": {
            "node": 3,
            "path": "scale"
          }
        },
        {
          "sampler": 2,
          "target": {
            "node": 8,
            "path": "rotation"
          }
        },
        {
          "sampler": 3,
          "target": {
            "node": 10,
            "path": "rotation"
          }
        },
        {
          "sampler": 4,
          "target": {
            "node": 10,
            "path": "scale"
          }
        }
      ],
      "name": "Rotation",
      "samplers": [
        {
          "input": 24,
          "interpolation": "LINEAR",
          "output": 25
        },
        {
          "input": 26,
          "interpolation": "LINEAR",
          "output": 27
        },
        {
          "input": 28,
          "interpolation": "LINEAR",
          "output": 29
        },
        {
          "input": 30,
          "interpolation": "LINEAR",
          "output": 31
        },
        {
          "input": 32,
          "interpolation": "LINEAR",
          "output": 33
        }
      ]
    }
  ],
  "asset": {
    "extras": {
      "author": "rjsul257 (https://sketchfab.com/rjsul257)",
      "license": "CC-BY-4.0 (http://creativecommons.org/licenses/by/4.0/)",
      "source": "https://sketchfab.com/3d-models/fractured-planet-8b222f39b11a4362afceff13dcf80a21",
      "title": "Fractured Planet"
    },
    "generator": "Sketchfab-14.63.0",
    "version": "2.0"
  },
  "bufferViews": [
    {
      "buffer": 0,
      "byteLength": 2568192,
      "name": "floatBufferViews",
      "target": 34963
    },
    {
      "buffer": 0,
      "byteLength": 1705784,
      "byteOffset": 2568192,
      "byteStride": 8,
      "name": "floatBufferViews",
      "target": 34962
    },
    {
      "buffer": 0,
      "byteLength": 3037128,
      "byteOffset": 4273976,
      "byteStride": 12,
      "name": "floatBufferViews",
      "target": 34962
    },
    {
      "buffer": 0,
      "byteLength": 1386816,
      "byteOffset": 7311104,
      "byteStride": 16,
      "name": "floatBufferViews",
      "target": 34962
    },
    {
      "buffer": 0,
      "byteLength": 7956,
      "byteOffset": 8697920,
      "name": "floatBufferViews"
    },
    {
      "buffer": 0,
      "byteLength": 7668,
      "byteOffset": 8705876,
      "byteStride": 12,
      "name": "floatBufferViews"
    },
    {
      "buffer": 0,
      "byteLength": 21600,
      "byteOffset": 8713544,
      "byteStride": 16,
      "name": "floatBufferViews"
    }
  ],
  "buffers": [
    {
      "byteLength": 8735144,
      "uri": "scene.bin"
    }
  ],
  "extensionsUsed": [
    "KHR_materials_specular",
    "KHR_materials_emissive_strength"
  ],
  "images": [
    {
      "uri": "textures/Earth_baseColor.jpeg"
    },
    {
      "uri": "textures/Molten_baseColor.jpeg"
    },
    {
      "uri": "textures/Molten_normal.png"
    },
    {
      "uri": "textures/Core_baseColor.jpeg"
    },
    {
      "uri": "textures/Material_baseColor.png"
    }
  ],
  "materials": [
    {
      "doubleSided": true,
      "extensions": {
        "KHR_materials_specular": {
          "specularColorFactor": [
            1.0,
            1.0,
            1.0
          ],
          "specularFactor": 0.4730383358785128
        }
      },
      "name": "Earth",
      "pbrMetallicRoughness": {
        "baseColorTexture": {
          "index": 0
        },
        "metallicFactor": 0.0,
        "roughnessFactor": 0.6251406946818931
      }
    },
    {
      "doubleSided": true,
      "emissiveFactor": [
        0.01,
        0.01,
        0.01
      ],
      "extensions": {
        "KHR_materials_specular": {
          "specularColorFactor": [
            1.0,
            1.0,
            1.0
          ],
          "specularFactor": 0.01
        }
      },
      "name": "Molten",
      "normalTexture": {
        "index": 2
      },
      "pbrMetallicRoughness": {
        "baseColorTexture": {
          "index": 1
        },
        "metallicFactor": 0.0,
        "roughnessFactor": 0.0
      }
    },
    {
      "doubleSided": true,
      "extensions": {
        "KHR_materials_emissive_strength": {
          "emissiveStrength": 10.0
        }
      },
      "name": "Core",
      "pbrMetallicRoughness": {
        "baseColorTexture": {
          "index": 3
        },
        "metallicFactor": 0.0,
        "roughnessFactor": 0.4973747132870537
      }
    },
    {
      "alphaCutoff": 0.11,
      "alphaMode": "MASK",
      "doubleSided": true,
      "extensions": {
        "KHR_materials_specular": {
          "specularColorFactor": [
            1.0,
            1.0,
            1.0
          ],
          "specularFactor": 0.5460474681041354
        }
      },
      "name": "Material",
      "pbrMetallicRoughness": {
        "baseColorTexture": {
          "index": 4
        },
        "metallicFactor": 0.0
      }
    }
  ],
  "meshes": [
    {
      "name": "Object_0",
      "primitives": [
        {
          "attributes": {
            "NORMAL": 1,
            "POSITION": 0,
            "TEXCOORD_0": 2
          },
          "indices": 3,
          "material": 0,
          "mode": 4
        }
      ]
    },
    {
      "name": "Object_1",
      "primitives": [
        {
          "attributes": {
            "NORMAL": 5,
            "POSITION": 4,
            "TANGENT": 6,
            "TEXCOORD_0": 7,
            "TEXCOORD_1": 8
          },
          "indices": 9,
          "material": 1,
          "mode": 4
        }
      ]
    },
    {
      "name": "Object_2",
      "primitives": [
        {
          "attributes": {
            "NORMAL": 11,
            "POSITION": 10,
            "TEXCOORD_0": 12
          },
          "indices": 13,
          "material": 2,
          "mode": 4
        }
      ]
    },
    {
      "name": "Object_3",
      "primitives": [
        {
          "attributes": {
            "NORMAL": 15,
            "POSITION": 14,
            "TANGENT": 16,
            "TEXCOORD_0": 17,
            "TEXCOORD_1": 18
          },
          "indices": 19,
          "material": 1,
          "mode": 4
        }
      ]
    },
    {
      "name": "Object_4",
      "primitives": [
        {
          "attributes": {
            "NORMAL": 21,
            "POSITION": 20,
            "TEXCOORD_0": 22
          },
          "indices": 23,
          "material": 3,
          "mode": 4
        }
      ]
    }
  ],
  "nodes": [
    {
      "children": [
        1
      ],
      "matrix": [
        -0.95828777551651,
        -0.1546174138784408,
        -0.240370586514473,
        0.0,
        0.07755247503519058,
        0.6688027381896974,
        -0.7393838763236998,
        0.0,
        0.2750821113586426,
        -0.7271838784217833,
        -0.6289144754409791,
        0.0,
        0.0,
        0.0,
        0.0,
        1.0
      ],
      "name": "Sketchfab_model"
    },
    {
      "children": [
        2
      ],
      "name": "root"
    },
    {
      "children": [
        3,
        6,
        8,
        10
      ],
      "matrix": [
        1.0,
        0.0,
        0.0,
        0.0,
        0.0,
        2.220446049250313e-16,
        1.0,
        0.0,
        0.0,
        -1.0,
        2.220446049250313e-16,
        0.0,
        0.0,
        0.0,
        0.0,
        1.0
      ],
      "name": "GLTF_SceneRootNode"
    },
    {
      "children": [
        4,
        5
      ],
      "name": "OuterSphere_0",
      "scale": [
        1.4999998807907104,
        1.5,
        1.4999998807907104
      ]
    },
    {
      "mesh": 0,
      "name": "Object_4"
    },
    {
      "mesh": 1,
      "name": "Object_5"
    },
    {
      "children": [
        7
      ],
      "matrix": [
        0.6000000238418579,
        0.0,
        0.0,
        0.0,
        0.0,
        0.6000000238418579,
        0.0,
        0.0,
        0.0,
        0.0,
        0.6000000238418579,
        0.0,
        0.0,
        0.0,
        0.0,
        1.0
      ],
      "name": "InnerSphere_1"
    },
    {
      "mesh": 2,
      "name": "Object_7"
    },
    {
      "children": [
        9
      ],
      "name": "MiddleSphere_2",
      "rotation": [
        0.0,
        0.006967685651034117,
        0.0,
        0.9999757409095764
      ],
      "scale": [
        0.699999988079071,
        0.699999988079071,
        0.699999988079071
      ]
    },
    {
      "mesh": 3,
      "name": "Object_9"
    },
    {
      "children": [
        11
      ],
      "name": "Clouds_3",
      "rotation": [
        0.007033550646156073,
        0.007039328571408987,
        0.006924333982169628,
        0.9999265074729919
      ],
      "scale": [
        1.5499998331069946,
        1.5499999523162842,
        1.5499999523162842
      ]
    },
    {
      "mesh": 4,
      "name": "Object_11"
    }
  ],
  "samplers": [
    {
      "magFilter": 9729,
      "minFilter": 9987,
      "wrapS": 10497,
      "wrapT": 10497
    }
  ],
  "scene": 0,
  "scenes": [
    {
      "name": "Sketchfab_Scene",
      "nodes": [
        0
      ]
    }
  ],
  "textures": [
    {
      "sampler": 0,
      "source": 0
    },
    {
      "sampler": 0,
      "source": 1
    },
    {
      "sampler": 0,
      "source": 2
    },
    {
      "sampler": 0,
      "source": 3
    },
    {
      "sampler": 0,
      "source": 4
    }
  ]
}
